<?xml version="1.0" encoding="UTF-8" standalone="no"?>
<svg
   xmlns:schema="http://schema.org/"
   xmlns:dc="http://purl.org/dc/elements/1.1/"
   xmlns:cc="http://creativecommons.org/ns#"
   xmlns:rdf="http://www.w3.org/1999/02/22-rdf-syntax-ns#"
   xmlns:svg="http://www.w3.org/2000/svg"
   xmlns="http://www.w3.org/2000/svg"
   xmlns:sodipodi="http://sodipodi.sourceforge.net/DTD/sodipodi-0.dtd"
   xmlns:inkscape="http://www.inkscape.org/namespaces/inkscape"
   width="41.705cm"
   height="29.976cm"
   version="1.1"
   viewBox="0 0 1182 850"
   id="svg31"
   sodipodi:docname="pillowpack_19_x_3_x_24_cm.svg"
   inkscape:version="0.92.2 (5c3e80d, 2017-08-06)">
  <defs
     id="defs35" />
  <sodipodi:namedview
     pagecolor="#ffffff"
     bordercolor="#666666"
     borderopacity="1"
     objecttolerance="10"
     gridtolerance="10"
     guidetolerance="10"
     inkscape:pageopacity="0"
     inkscape:pageshadow="2"
     inkscape:window-width="2560"
     inkscape:window-height="1315"
     id="namedview33"
     showgrid="false"
     inkscape:zoom="0.58917702"
     inkscape:cx="810.39341"
     inkscape:cy="695.88209"
     inkscape:window-x="-13"
     inkscape:window-y="-13"
     inkscape:window-maximized="1"
     inkscape:current-layer="svg31" />
  <desc
     id="desc2">pillowpack by Templatemaker.nl</desc>
  <metadata
     id="metadata4">
    <rdf:RDF>
      <rdf:Description
         rdf:about="">
        <schema:license
           rdf:resource="https://creativecommons.org/licenses/by-sa/4.0/" />
      </rdf:Description>
      <cc:Work
         rdf:about="">
        <dc:format>image/svg+xml</dc:format>
        <dc:type
           rdf:resource="http://purl.org/dc/dcmitype/StillImage" />
        <dc:title></dc:title>
      </cc:Work>
    </rdf:RDF>
  </metadata>
  <g
     class="page"
     id="page-1"
     transform="translate(0)">
    <g
       style="fill:none; stroke:rgb(216,84,44);stroke-width:2;stroke-miterlimit:4;"
       id="cut"
       transform="translate(62.362,85.039)">
      <path
         id="cut-L1"
         d="M1077.2,0 L1077.2,680.3" />
      <path
         id="cut-G"
         d="M0,680.3 L-19.8,673.9 L-19.8,6.4 L0,0" />
      <path
         id="cut-C1"
         d="M-0.1,0 L73.4,-20.3 L148.3,-34.1 L224.2,-41.4 L300.5,-42 L376.5,-35.9 L451.7,-23.3 L525.5,-4.1 L538.7,0" />
      <path
         id="cut-C2-1"
         d="M538.5,0 L611.9,-20.3 L686.9,-34.1 L762.8,-41.4 L793.7,-42.4" />
      <path
         id="cut-C2-2"
         d="M822.1,-42.4 L898.2,-37.8 L973.6,-26.7 L1047.8,-9 L1077.3,0" />
      <path
         id="cut-C3"
         d="M538.7,680.3 L465.2,700.6 L390.2,714.4 L314.3,721.7 L238.1,722.3 L162.1,716.2 L86.9,703.6 L13.1,684.4 L-0.1,680.3" />
      <path
         id="cut-C4"
         d="M1077.3,680.3 L1003.8,700.6 L928.8,714.4 L852.9,721.7 L776.7,722.3 L700.7,716.2 L625.5,703.6 L551.7,684.4 L538.5,680.3" />
      <path
         id="cut-Hole1"
         d="M822,-42.4 L822,-41.2 L821.8,-39.9 L821.5,-38.7 L821.2,-37.6 L820.7,-36.4 L820.1,-35.3 L819.4,-34.3 L818.7,-33.3 L817.8,-32.4 L816.9,-31.6 L815.9,-30.8 L814.9,-30.2 L813.8,-29.6 L812.6,-29.2 L811.4,-28.8 L810.2,-28.5 L809,-28.4 L807.8,-28.3 L806.5,-28.4 L805.3,-28.6 L804.1,-28.9 L802.9,-29.2 L801.8,-29.7 L800.7,-30.3 L799.7,-31 L798.7,-31.7 L797.8,-32.6 L796.9,-33.5 L796.2,-34.5 L795.5,-35.5 L795,-36.6 L794.5,-37.8 L794.2,-39 L793.9,-40.2 L793.7,-41.4 L793.7,-42.4" />
    </g>
    <g
       style="fill:none; stroke:rgb(14,123,201);stroke-width:1;stroke-miterlimit:4;"
       id="fold"
       transform="translate(62.362,85.039)">
      <path
         id="fold-L1"
         d="M538.6,0 L538.6,680.3" />
      <path
         id="fold-L2"
         d="M0,0 L0,680.3" />
      <path
         id="fold-C1"
         d="M538.7,-0 L465.2,20.3 L390.2,34.1 L314.3,41.4 L238.1,42 L162.1,35.9 L86.9,23.3 L13.1,4.1 L-0.1,-0" />
      <path
         id="fold-C2"
         d="M1077.3,-0 L1003.8,20.3 L928.8,34.1 L852.9,41.4 L776.7,42 L700.7,35.9 L625.5,23.3 L551.7,4.1 L538.5,-0" />
      <path
         id="fold-C3"
         d="M-0.1,680.4 L73.4,660 L148.3,646.2 L224.2,639 L300.5,638.4 L376.5,644.4 L451.7,657 L525.5,676.2 L538.7,680.4" />
      <path
         id="fold-C4"
         d="M538.5,680.4 L611.9,660 L686.9,646.2 L762.8,639 L839.1,638.4 L915.1,644.4 L990.3,657 L1064.1,676.2 L1077.3,680.4" />
    </g>
  </g>
  <g
     style="color:#000000;fill:none;stroke:currentColor;stroke-width:0.37790224;stroke-miterlimit:4;stroke-dasharray:none"
     id="ID_0-44-5"
     transform="matrix(0,-1.5008941,-1.5008941,0,393.70584,563.73903)">
    <line
       style="stroke-width:0.37790224;stroke-miterlimit:4;stroke-dasharray:none"
       x1="138.94565"
       y1="10.624024"
       x2="138.95651"
       y2="10.576948"
       id="ID_104-3-8" />
    <line
       style="stroke-width:0.37790224;stroke-miterlimit:4;stroke-dasharray:none"
       x1="45.60104"
       y1="-1.1913026e-016"
       x2="137.28166"
       y2="8.6042284e-015"
       id="ID_123-2-2" />
    <line
       style="stroke-width:0.37790224;stroke-miterlimit:4;stroke-dasharray:none"
       x1="138.58165"
       y1="1.1310397e-014"
       x2="170.52316"
       y2="0"
       id="ID_133-7" />
    <path
       inkscape:connector-curvature="0"
       id="ID_105-28-9"
       d="m 138.95651,10.576949 c 6.26757,-0.238824 12.56447,-1.2283284 18.8048,-1.2044229 1.59271,1.9249319 -1.98611,3.8722279 -3.06075,5.1805019 -5.82329,4.722153 -11.47126,10.119521 -18.4249,13.09524 -5.75541,-1.641736 -1.6355,-10.816146 0.65248,-14.301046 0.60756,-0.928523 1.27293,-1.818741 1.9826,-2.67158"
       style="stroke-width:0.37790224;stroke-miterlimit:4;stroke-dasharray:none" />
    <path
       inkscape:connector-curvature="0"
       id="ID_109-4-4"
       d="m 126.64276,19.563459 c 0.90914,-2.747973 2.01667,-5.444634 3.42809,-7.974918"
       style="stroke-width:0.37790224;stroke-miterlimit:4;stroke-dasharray:none" />
    <path
       inkscape:connector-curvature="0"
       id="ID_110-41-0"
       d="m 91.072483,17.882604 c 12.939957,-2.476079 25.971377,-4.475148 39.014457,-6.32223"
       style="stroke-width:0.37790224;stroke-miterlimit:4;stroke-dasharray:none" />
    <path
       inkscape:connector-curvature="0"
       id="ID_111-1-4"
       d="m 50.545724,108.10462 c 3.083253,4.79435 9.122418,8.1369 14.7633,5.80968 5.935436,-1.87735 5.179245,-9.19069 5.76203,-14.11433 0.283648,-8.376498 4.327343,-17.802863 13.18041,-20.0542 13.998866,-4.003142 28.744386,-2.673086 43.093996,-2.186516 4.86776,0.191629 9.82189,-4.285672 7.93297,-9.36521 -3.27814,-9.30092 -10.48926,-16.53433 -16.5637,-24.08626 -8.35134,-9.599937 -17.74017,-18.249077 -27.64085,-26.22434"
       style="stroke-width:0.37790224;stroke-miterlimit:4;stroke-dasharray:none" />
    <path
       inkscape:connector-curvature="0"
       id="ID_112-7-5"
       d="m 47.913045,79.841528 c 7.231139,6.492885 12.170638,15.982189 12.581852,25.744462 0.08371,5.01776 -5.283024,7.55519 -9.91337,2.56022"
       style="stroke-width:0.37790224;stroke-miterlimit:4;stroke-dasharray:none" />
    <path
       inkscape:connector-curvature="0"
       id="ID_120-3-0"
       d="m 34.96997,71.266729 c 4.286751,2.261508 8.459782,4.799122 12.18267,7.9181"
       style="stroke-width:0.37790224;stroke-miterlimit:4;stroke-dasharray:none" />
    <path
       inkscape:connector-curvature="0"
       id="ID_121-7-4"
       d="m 34.96997,71.266729 c 14.421312,5.528234 30.407088,3.879248 45.400695,2.111132 8.629211,-1.444304 17.90889,-3.024533 25.019865,-8.50602"
       style="stroke-width:0.37790224;stroke-miterlimit:4;stroke-dasharray:none" />
    <path
       inkscape:connector-curvature="0"
       id="ID_122-2-7"
       d="M 105.43171,64.83864 C 88.633519,44.128073 62.525653,35.292998 38.436015,26.169807 31.421113,22.942002 22.646155,19.968908 19.363826,12.337867 17.932006,6.7025894 24.762932,4.0877463 29.02268,2.881353 34.367581,1.3341947 39.91097,0.5748032 45.435036,0.01617171"
       style="stroke-width:0.37790224;stroke-miterlimit:4;stroke-dasharray:none" />
    <path
       inkscape:connector-curvature="0"
       id="ID_134-5"
       d="m 170.52316,0 c 2.29884,0.51069048 5.4706,-0.15776827 7.0892,1.8176412 0.80834,4.2849786 -3.96548,6.7743841 -6.34149,9.5381808 -10.66927,9.976986 -22.58055,19.159849 -36.3515,24.35345 -5.49754,1.609499 -9.63786,-4.766888 -9.51056,-9.62783 -0.003,-1.893449 0.42213,-3.752497 0.92935,-5.56622 l 0.3046,-0.951763"
       style="stroke-width:0.37790224;stroke-miterlimit:4;stroke-dasharray:none" />
  </g>
</svg>
